<mxfile host="app.diagrams.net" modified="2021-11-25T09:12:37.854Z" agent="5.0 (Windows NT 10.0; Win64; x64) AppleWebKit/537.36 (KHTML, like Gecko) Chrome/96.0.4664.45 Safari/537.36 Edg/96.0.1054.29" etag="-6c9tlZLeKExeA5GTu3a" version="15.8.2" type="github">
  <diagram id="0SSqz05uCD_B4Oa7NDAf" name="Page-1">
    <mxGraphModel dx="981" dy="548" grid="1" gridSize="10" guides="1" tooltips="1" connect="1" arrows="1" fold="1" page="1" pageScale="1" pageWidth="827" pageHeight="1169" math="0" shadow="0">
      <root>
        <mxCell id="0" />
        <mxCell id="1" parent="0" />
        <mxCell id="Vx_kvmbCpHdBKnT_1PFn-3" style="edgeStyle=orthogonalEdgeStyle;rounded=0;orthogonalLoop=1;jettySize=auto;html=1;exitX=1;exitY=0.5;exitDx=0;exitDy=0;entryX=0;entryY=0.5;entryDx=0;entryDy=0;" edge="1" parent="1" source="Vx_kvmbCpHdBKnT_1PFn-1" target="Vx_kvmbCpHdBKnT_1PFn-2">
          <mxGeometry relative="1" as="geometry" />
        </mxCell>
        <mxCell id="Vx_kvmbCpHdBKnT_1PFn-1" value="UART_TX" style="rounded=0;whiteSpace=wrap;html=1;" vertex="1" parent="1">
          <mxGeometry x="220" y="220" width="120" height="60" as="geometry" />
        </mxCell>
        <mxCell id="Vx_kvmbCpHdBKnT_1PFn-7" style="edgeStyle=orthogonalEdgeStyle;rounded=0;orthogonalLoop=1;jettySize=auto;html=1;entryX=0;entryY=0.5;entryDx=0;entryDy=0;" edge="1" parent="1" source="Vx_kvmbCpHdBKnT_1PFn-2" target="Vx_kvmbCpHdBKnT_1PFn-6">
          <mxGeometry relative="1" as="geometry" />
        </mxCell>
        <mxCell id="Vx_kvmbCpHdBKnT_1PFn-2" value="UART_RX" style="rounded=0;whiteSpace=wrap;html=1;" vertex="1" parent="1">
          <mxGeometry x="450" y="220" width="120" height="60" as="geometry" />
        </mxCell>
        <mxCell id="Vx_kvmbCpHdBKnT_1PFn-5" style="edgeStyle=orthogonalEdgeStyle;rounded=0;orthogonalLoop=1;jettySize=auto;html=1;exitX=1;exitY=0.5;exitDx=0;exitDy=0;entryX=0;entryY=0.5;entryDx=0;entryDy=0;" edge="1" parent="1" source="Vx_kvmbCpHdBKnT_1PFn-4" target="Vx_kvmbCpHdBKnT_1PFn-1">
          <mxGeometry relative="1" as="geometry" />
        </mxCell>
        <mxCell id="Vx_kvmbCpHdBKnT_1PFn-4" value="FIFO_WR" style="whiteSpace=wrap;html=1;aspect=fixed;" vertex="1" parent="1">
          <mxGeometry x="80" y="210" width="80" height="80" as="geometry" />
        </mxCell>
        <mxCell id="Vx_kvmbCpHdBKnT_1PFn-13" style="edgeStyle=orthogonalEdgeStyle;rounded=0;orthogonalLoop=1;jettySize=auto;html=1;exitX=0.5;exitY=0;exitDx=0;exitDy=0;entryX=0.5;entryY=1;entryDx=0;entryDy=0;" edge="1" parent="1" source="Vx_kvmbCpHdBKnT_1PFn-6" target="Vx_kvmbCpHdBKnT_1PFn-12">
          <mxGeometry relative="1" as="geometry" />
        </mxCell>
        <mxCell id="Vx_kvmbCpHdBKnT_1PFn-6" value="FIFO_RD" style="whiteSpace=wrap;html=1;aspect=fixed;" vertex="1" parent="1">
          <mxGeometry x="650" y="210" width="80" height="80" as="geometry" />
        </mxCell>
        <mxCell id="Vx_kvmbCpHdBKnT_1PFn-9" style="edgeStyle=orthogonalEdgeStyle;rounded=0;orthogonalLoop=1;jettySize=auto;html=1;exitX=0.5;exitY=1;exitDx=0;exitDy=0;entryX=0.5;entryY=0;entryDx=0;entryDy=0;" edge="1" parent="1" source="Vx_kvmbCpHdBKnT_1PFn-8" target="Vx_kvmbCpHdBKnT_1PFn-4">
          <mxGeometry relative="1" as="geometry" />
        </mxCell>
        <mxCell id="Vx_kvmbCpHdBKnT_1PFn-8" value="i2s_Rx" style="whiteSpace=wrap;html=1;aspect=fixed;" vertex="1" parent="1">
          <mxGeometry x="80" y="80" width="80" height="80" as="geometry" />
        </mxCell>
        <mxCell id="Vx_kvmbCpHdBKnT_1PFn-11" value="24khz sample rate" style="shape=callout;whiteSpace=wrap;html=1;perimeter=calloutPerimeter;" vertex="1" parent="1">
          <mxGeometry x="70" y="20" width="120" height="60" as="geometry" />
        </mxCell>
        <mxCell id="Vx_kvmbCpHdBKnT_1PFn-17" style="edgeStyle=orthogonalEdgeStyle;rounded=0;orthogonalLoop=1;jettySize=auto;html=1;entryX=0;entryY=0.5;entryDx=0;entryDy=0;" edge="1" parent="1" source="Vx_kvmbCpHdBKnT_1PFn-12" target="Vx_kvmbCpHdBKnT_1PFn-15">
          <mxGeometry relative="1" as="geometry" />
        </mxCell>
        <mxCell id="Vx_kvmbCpHdBKnT_1PFn-12" value="i2s_TX" style="whiteSpace=wrap;html=1;aspect=fixed;" vertex="1" parent="1">
          <mxGeometry x="650" y="80" width="80" height="80" as="geometry" />
        </mxCell>
        <mxCell id="Vx_kvmbCpHdBKnT_1PFn-14" value="ADC" style="triangle;whiteSpace=wrap;html=1;" vertex="1" parent="1">
          <mxGeometry x="10" y="80" width="70" height="80" as="geometry" />
        </mxCell>
        <mxCell id="Vx_kvmbCpHdBKnT_1PFn-15" value="DAC" style="triangle;whiteSpace=wrap;html=1;" vertex="1" parent="1">
          <mxGeometry x="760" y="80" width="60" height="80" as="geometry" />
        </mxCell>
        <mxCell id="Vx_kvmbCpHdBKnT_1PFn-16" value="24khz sample rate" style="shape=callout;whiteSpace=wrap;html=1;perimeter=calloutPerimeter;" vertex="1" parent="1">
          <mxGeometry x="630" y="20" width="120" height="60" as="geometry" />
        </mxCell>
        <mxCell id="Vx_kvmbCpHdBKnT_1PFn-18" value="&lt;h1&gt;&lt;span class=&quot;VIiyi&quot; lang=&quot;en&quot; style=&quot;display: inline ; font-family: &amp;#34;roboto&amp;#34; , &amp;#34;robotodraft&amp;#34; , &amp;#34;helvetica&amp;#34; , &amp;#34;arial&amp;#34; , sans-serif ; font-weight: 400 ; background-color: rgb(245 , 245 , 245)&quot;&gt;&lt;span class=&quot;JLqJ4b ChMk0b&quot; style=&quot;cursor: pointer ; background-color: rgb(210 , 227 , 252)&quot;&gt;&lt;span&gt;illustrate：&lt;/span&gt;&lt;/span&gt;&lt;/span&gt;&lt;span style=&quot;font-family: &amp;#34;roboto&amp;#34; , &amp;#34;robotodraft&amp;#34; , &amp;#34;helvetica&amp;#34; , &amp;#34;arial&amp;#34; , sans-serif ; font-weight: 400 ; background-color: rgb(245 , 245 , 245)&quot;&gt;&lt;/span&gt;&lt;br&gt;&lt;/h1&gt;&lt;p&gt;24khz采样率--41.666us--16bit&lt;/p&gt;&lt;p&gt;1843200 --542.5ns 1bit x16-- 8.680us&amp;nbsp; 10. 850us&lt;/p&gt;" style="text;html=1;strokeColor=none;fillColor=none;spacing=5;spacingTop=-20;whiteSpace=wrap;overflow=hidden;rounded=0;" vertex="1" parent="1">
          <mxGeometry x="150" y="330" width="310" height="120" as="geometry" />
        </mxCell>
        <mxCell id="Vx_kvmbCpHdBKnT_1PFn-19" value="1843200" style="shape=callout;whiteSpace=wrap;html=1;perimeter=calloutPerimeter;" vertex="1" parent="1">
          <mxGeometry x="240" y="160" width="120" height="60" as="geometry" />
        </mxCell>
        <mxCell id="Vx_kvmbCpHdBKnT_1PFn-26" value="" style="shape=image;verticalLabelPosition=bottom;labelBackgroundColor=#ffffff;verticalAlign=top;aspect=fixed;imageAspect=0;image=data:image/png,iVBORw0KGgoAAAANSUhEUgAAAr8AAACLCAYAAABobfF8AAAUhklEQVR4nO3df2xT573H8c9hBDQhIS2hDChCBLAlciOxSQnCkW41KP1lqzR0UruqV2h/1ObqTkh2ufx1M6ox9hfrtdUfNDe50gTa1I2/st7ZV6NlTEyKbxurDDUNkg+kassEg5C1XSk/RvPcPxwnTogT/zwn5Lxf6FFyzvF5/Nj+Bj48fnJs/f2LvxsBNTaQGdD27dun7Dt9+rTa29pdGpEzZnrclmVNfL9lyxadO3fO6WFJkjKZ3Ne2NlfuHgCAeWGxEdkXzqHeAACAmxYbsggcRL0BAAA3LSaNwFHUGwAAcNFiogicRL0BAAA3LTbMxMFB1BsAAHATyx7gLOoNAAC4iGUPcBT1NlVm/PpjbVx/DA7IZDL31Fq5NVjs9uXux8JWq3qg3lCKcuthkTFGlbSxi0f1WOO31PjYUV0cG5MxRhePPqrGxkd19OJYRX3SFk4rppK+xsYu6Ohj31JjY1Rvj40V7H9bsWk1OOP5b0fV2Pgtxd6uf12W+8Pa1tamtra2iR9QoF5mqrFya7DY7cvdj4WtVvVAvaEUldTDIhmp4iZJA/+h105p6pReNX3SFkYrpoK+LG3UY0+1Szqm1KmCY6eSOiap/alHtUFWaWNx63EDLmMmDMBCVMnfbYuMKv+Td+znb+iiGSvYkzt+sTumx1c0qmlFo5pWPKZY90UZGY2diqlpRaMefzGm2BON498f1TsTt5+8rZHR2PDRids1PRHTG8NjVYyaP078KabS/tY/+pTaJR1LvjOxb9gektSupx5tllHxejMF9z1Re+PH3nmxUU0rYnrH5Gqq2loDAK/jP1pwWiaTmXFZVzGLjJEqbZLU3t4uDXTptVOT+4yRxi6+oR91DWnXuyO6du26fr1nQMe7XtM7Y2bidgPnffpRckTv/rRdA8e79Gw2qNeujky57djFNxTc2qXzuwZ09eqAfr35mLq27p/ohzY/WzEV97n+Me1ql3Q8lauLsWH9/rcDUvtTemR9afWmwrHl+y0YVy1qDQCQU04YAapR7nKXRZWnkfEedv27ftouHX+5Wx/lezVGVvO/KvnX1+U72a39wcf1g+OSNCR7eDIltO96VBskNW/aLEna88SO3LavfeK2H538rQbUrl2PrJelZu14Yo9yb3/Pg4RHKz8FVtifpWY9uqt98rUf/r3eGpisoVLqberY7v2+JrUGACD4Yl5bZCRV2nKaFXlxjzTQpZffmux4bLhboW9v1Q/eysr34ut6c8/kscKIYErYlgb0420P6IGVK7TyueOSpPMXPqp43LT6t2Kq6XP9I7mlD+cvfKTht/NBtVlG5dXb9LFM/b66WpvL97///RJuBVSPX/iBk2b6RSOgXqbXW7kq/pALY8ZXOBojs/1HOtR2XAcHBiS1yxgzEU4OvfJzRTZYOpWUpM3auN7IDBf0YSbflh4zZsoE2uSxdh1KJ7V3g3XPGHB/qeY1M+sf0ZNtXTr429f0mgaktp9q5/pcjQyfnLvexszkqtyJ2hsr3JacrLXCt2j4hwL1lq+1wmBSrAaLhZdity93Pxa+wkBCvaGeyq2HTCZTxYdcTKYIWdqgSGyPDj5/fGJf7viAssNGxpxS6peSdF4Xho12FJw7eduC8wq2m3fuUtvBH+utk8Pau3eDhv8rpMBL0qH+390TUHAfqCJEWmrWI0+26+BLx/VLSW0/eUQb8n2WWm/NPrWNf2/G3hm/nVyrNf6ChlOK1Vq5NVhuP9S498z2mlNvqIdy66HqX3iTxre3/5t+0ja5vT78qn7SJv3y+W9rVcd/Ss+3SxpQ9qNpbz2b4tvGSGreq//51R7ppW369qqVCrwk/cuvfqdIs+X6slba3LUxXbX9rt+5Kxde1a4ndzZP7i+x3tS8V7Hn25V5aZtWPfm/0vO1rTXgfsdb1nAS9QYn5evNunz5r/yTjZo7f/5Dbd++fcq+06dPa/Pmf3JpRM6Y6XFb1uSs8aFDh3Tw4EGnhyVJyr8Lyb8z3kCogJOoNzip2npbXNJv6QC1Qr0BAAAXVfwLb0AlqDcAAOCmxUQROIl6AwAAbqriQy5otFlaMW6Py63HjYpxvVo4iXqDk6g3d7DsAY6i3gAAgJtY9gBHUW8AAMBNlX/IBVAJ6g0AALioqg+5oNGKtWLcHpdbj7sW3FwbVu19e3XsXn3e3H7cPG/unO/Wfd/PP+PV4nmr7L4XG96IhoOoNwAA4CY+5ALOot4AAICLFl8czro9BngI9QYAANxkibk41Mn0y5pZluXSSJw12+M+dOiQgsGg00Mal/8cdK4rCQDwNkOj1aNN5/Z45sPj3rdvn2vjymRyze3nh+ZM6+7udn0MNO806o3mZKu23hYJAAAA8AjCLwAAADyD8As46MwDZ1hy61UZ8dp7Ga+/d/HazzuEXwAAAHjG4np1vLZzo9bu3jSxfXb/Gd0euamlK76p77780D37AQAAgHqr28zvlZMf6+z+M/rwZ+/NeNw+eq5ed437VlhJY2SMkcnGFXB7OAAAYMGpW/i9+9Vd3R65qTujt2Y8/o/P79TrrnFfCiie7ZEilizLUkcypP5k2O1BAQCABWYer/kNK2mSisezuZlAk1U8MP24mXYsoHg2q3g8Ob7fKBsPSOFp2yXff77/pCZiWCCubDaueNJM9ElGq4VW+X0p9fXmttInkrKDneKpBQAAtTSPw68kBRUNJdVhWbIitqL9+RA6dZbQitiKHotrmyTJp6i/L7e/IyFF+2U6C7e7SgpU4WSPfImO3CxkwqeewoTriyqU7Ri/75SCB3iLvmqBFvnsrAbz2+kh2fKphScWAADUkKPhd/ny5dr9+G597/pW/TC4Ry2XNmjpkiWznpM6ElNaknoPK2GPh6HAMwoVzBKqNyTLH9P/SZJsJQ5PTB8qaRdulxqowuoM2kqeSOdOix1RasosZEpHYrljGszK9vnVWuqTgJm1+uVzewwAAGDBq9vVHqZbumSJnn36Oe2NvKCGhgZJ0tWRq7p74Ssd/8WxImfZyk5OBWrI9qmzVdKgpMJZwrrwKdpvFC0cC7OQ9TOYle32GAAAwILn2Mzvls3f0c6dO9TQ0KB33xvQH07/UStXrNTD2x/WmjUPltBDQC2+gjBc99nWlCLW+LIKy5Jl+ZWf7EUdpIemzqAHWuSTrSGecwAAUEOOhd8H16zVpo2bdPnKFX3wwaA+/fSSbty4odWrVmvdunVFzvIp2jW+2CDcpaiSOpHW+HKGoDrz6xACcWVNUi/UbLS96ksFdSD/y3HhJJfeqrtBZe3J5zzwTEi+VJ965zgLAACgHI4texi9OarR0VGtXrVKHYFtampq1LJly/T+n8/p8sjlImfZSumAjOmRZCvREdL4KlzF/JHc1Rh6NH7Mr/9WQPEajbc3FFGn6ZeJ5vvP3zfqI/ea+vPPuZ1Qh5/oCwAAasux8PtlUPrT2X7t2PqQWlo2S5I+++xzffLlJX3d+g3pwsznZQ/7FQrNdKRXIWt6OEor5vfPsj3TOcUUuW06Jr81yzaqUM7rAwAAUL66h987f7uls/vPSJLsZe/r+qVreqBppRYtsvTxXz7Rb/re1K0vHP5440Bc2f5okasL5GaRWd8LAACw8NQ9/JqvjW6P5MLttZGbev2VV0s8s46zgOmY/FasPn0DAABg3prnH3IBAAAA1A7hFwAAAJ5B+AUAAIBnEH4BAADgGZYk4/YgsDAZM7W0LMsb14Sb7XFvObRF54LnnB6SJCkz/rXNlXsHAGD+MDRaPdp0bo9nPjzuffv2uTauTCbX3H5+aM607u5u18dA806j3mhOtmrrjWUPAAAA8AzCLwAAADyD8AsAAADPIPwCAADAMwi/AHA/yGjykh1u9eH2+YBXuf2z5/b5NUb4BQAAgGcsrlfHazs3au3uTRPbZ/ef0e2Rm1q64pv67ssP3bMfAAAAqLe6zfxeOfmxzu4/ow9/9t6Mx+2js13oP6B41siYGVo2rkC5gwnElZ2hr2S43I5QX2Elq3mdAQAA5lC38Hv3q7u6PXJTd0ZvzXj8H5/fmeXstGJ+S5ZlyepIyFZKEWt82x9TuqIRFfRhWbKsiNRDAJ4/Aopne6RI7vXpSIbUz4sDAABq7L5c8xtOGmXjuXnBQDwrU1FI6lWoIyHfgcIZxoKZR5PURK+BuLLZuOLJYrPGRc5DGVrl96XU15vbSp9Iyg528lwCAICaui/Db28oIjvapbDC6oraioR6K+soPSTbF9Iz4+k3nOyRL9GRmxmOSD2Fb737ogpl88dSChaE5sLzOhI+9TBjWb5Ai3x2VoP57fSQbPnUwtoHAABQQ46G3+XLl2v347v1vetb9cPgHrVc2qClS5ZU0FOvDid86jE98iUOq8LoK2lQWTv/fVidwZSOxMYXVfT2KVUQjKWCY4NZ2T6/WifOs5U8kTuWjh1RihnL8rX65XN7DAAAYMGr29Ueplu6ZImeffo57Y28oIaGBknS1ZGrunvhKx3/xbGy+0ufSMqOhiZCZ2Va5fdJWSk38zjlWGEwnotP0X6j6MS2rWxAqnBxsjcNZlXy0w0AAFAhx2Z+t2z+jnbu3KGGhga9+96A/nD6j1q5YqUe3v6w1qx5sOz+wl1R2Slb0a4q5ljDnQraSZ1Ia/xt9kK5YFya6b9M51eM4Fue9FDBbLrG/zNia4jnEQAA1JBj4ffBNWu1aeMmXb5yRR98MKhPP72kGzduaPWq1Vq3bl15nQXiOuBL6HDosBK+A4pXtC40rGRPUKkj+atH9KovFdSBfGeFwXhW089Lcpmuigwqa08+j4FnQvKl+qpY0gIAAHAvx5Y9jN4c1ejoqFavWqWOwDY1NTVq2bJlev/P53R55HIZPQUUPxaVfcRSWlL6iC1zLK4Tc14CLageY9RTsCcVsVT4u3K9oYg6Tb9MVMrN5pZ2WbWp59lKdIRY8VC2tGL+iPz559FOqMNP9AUAALXlWPj9Mij96Wy/dmx9SC0tmyVJn332uT758pK+bv2GdKHIiemY/NaUHYoV7ugNyZorI6Vj8luxEkbZq9BMnU0fwz1jKnIeysTzCAAA6qvu4ffO327p7P4zkiR72fu6fumaHmhaqUWLLH38l0/0m743deuLKj/eOBBXtj9a5GoBthIdrMEFAACAA+HXfG10eyQXbq+N3NTrr7xa+zspeWYXAAAAXnZffsgFAAAAUAnCLwAAADyD8AsAAADPIPwCAADAMyxJxu1BYGEyZmppWZZV5JYLy2yPe8uhLToXPOf0kCRJmfGvba7cOwAA84eh0erRpnN7PPPhce/bt8+1cWUyueb280NzpnV3d7s+Bpp3GvVGc7JVW28sewAAAIBnEH4BAADgGYRfAAAAeAbhFwAAAJ5B+AUAJ2Q0eckNN86fL2MAvGYh/OwusJ99wi8AAAA8Y3G9Ol7buVFrd2+a2D67/4xuj9zU0hXf1Hdffuie/QAAAEC91W3m98rJj3V2/xl9+LP3ZjxuH53jQv+BuLImqXAdxob5KqykMTLGyGTjCrg9HAAAsODULfze/equbo/c1J3RWzMe/8fnd+p117gvBRTP9kgRS5ZlqSMZUn+S//oAAIDamqdrfsNK9kflU1A9JqmepFE2npsHDMSzMiWFooJZxMIZ5EBc2Wxc8WT+mBEZaz5old+XUl9vbit9Iik72MnMPwAAqKl5Gn57FepIyFZKESukSCgiO9qlsMLqitqKhHrn7CGc7JEv0ZGbRUz41FOYcH1RhbK5Y1YkpeAB3mJ3XaBFPjurwfx2eki2fGrhhQEAADXkaPhdvny5dj++W9+7vlU/DO5Ry6UNWrpkSQln9upwwqce0yNf4rBKiL7qDNpKnkhLktKxI0pNmUVM6Ugsd0yDWdk+v1oreUConVa/fG6PAQAALHh1u9rDdEuXLNGzTz+nvZEX1NDQIEm6OnJVdy98peO/ODbn+ekTSdnR0ESgnZtP0X6j6MS2rSyziPPXYFa222MAAAALnmMzv1s2f0c7d+5QQ0OD3n1vQH84/UetXLFSD29/WGvWPDjn+eGuqOyUrWhXqatAU4pYuV+eyjW/YqXmZjgvPTR1Bj7QIp9sDfGaAQCAGnIs/D64Zq02bdyky1eu6IMPBvXpp5d048YNrV61WuvWrZv95EBcB3wJHQ4dVsJ3QPE5Z3B71ZcK6kD+huEkl86a9waVtSdfs8AzIflSfSUscQEAACidY8seRm+OanR0VKtXrVJHYJuamhq1bNkyvf/nc7o8cvneE9InlLT71WPO6Cn7n2UfsZSWlD5iyxyL64Q/ptkmBXtDEXWafpmoJNlKdIRmvT3cllbMH5E//5rZCXX4ib4AAKC2HAu/XwalP53t146tD6mlZbMk6bPPPtcnX17S163fkC5MPyOtmN9SbPru3pCskjJRr0Iz3TAdk9+aZRsuKvKaAQAA1Ejdw++dv93S2f1nJEn2svd1/dI1PdC0UosWWfr4L5/oN31v6tYXZX68cSCubH+0yNUBbCU6WN8LAACAe9U9/JqvjW6P5MLttZGbev2VV6vvNB2T37pnThgAAACY1Tz9kAsAAACg9gi/AAAA8AzCLwAAADyD8AsAAADPsCQZtweBhcmYqaVlWd64ptxsj3vLoS06Fzzn9JAkSZnxr22u3DsAAPOHodHq0aZzezzz4XHv27fPtXFlMrnm9vNDc6Z1d3e7Pgaadxr1RnOyVVtvLHsAAACAZxB+AQAA4BmEXwAAAHgG4RcAAACeQfgFAACAZxB+AQAA4BmEXwAAAHgG4RcAAACeQfgFAACAZxB+AQAA4BmEXwAAAHgG4RcAAACeQfgFAACAZxB+AQAA4BmEXwAAAHgG4RcAAACeQfgFAACAZxB+AQAA4BmEXwAAAHgG4RcAAACeQfgFAACAZxB+AQAA4BmEXwAAAHgG4RcAAACeQfgFAACAZxB+AQAA4BmEXwAAAHgG4RcAAACeQfgFAACAZxB+AQAA4BmEXwAAAHgG4RcAAACeQfgFAACAZxB+AQAA4BmEXwAAAHjG/wPj9BBR3fozsQAAAABJRU5ErkJggg==;" vertex="1" parent="1">
          <mxGeometry x="90" y="460" width="703" height="139" as="geometry" />
        </mxCell>
        <mxCell id="Vx_kvmbCpHdBKnT_1PFn-27" value="1843200" style="shape=callout;whiteSpace=wrap;html=1;perimeter=calloutPerimeter;" vertex="1" parent="1">
          <mxGeometry x="450" y="160" width="120" height="60" as="geometry" />
        </mxCell>
        <mxCell id="Vx_kvmbCpHdBKnT_1PFn-49" style="edgeStyle=orthogonalEdgeStyle;rounded=0;orthogonalLoop=1;jettySize=auto;html=1;exitX=0.5;exitY=1;exitDx=0;exitDy=0;entryX=0.394;entryY=0;entryDx=0;entryDy=0;entryPerimeter=0;" edge="1" parent="1" source="Vx_kvmbCpHdBKnT_1PFn-29" target="Vx_kvmbCpHdBKnT_1PFn-48">
          <mxGeometry relative="1" as="geometry" />
        </mxCell>
        <mxCell id="Vx_kvmbCpHdBKnT_1PFn-29" value="UART_TX" style="rounded=0;whiteSpace=wrap;html=1;" vertex="1" parent="1">
          <mxGeometry x="260" y="1000" width="120" height="60" as="geometry" />
        </mxCell>
        <mxCell id="Vx_kvmbCpHdBKnT_1PFn-30" style="edgeStyle=orthogonalEdgeStyle;rounded=0;orthogonalLoop=1;jettySize=auto;html=1;entryX=0;entryY=0.5;entryDx=0;entryDy=0;" edge="1" parent="1" source="Vx_kvmbCpHdBKnT_1PFn-31" target="Vx_kvmbCpHdBKnT_1PFn-35">
          <mxGeometry relative="1" as="geometry" />
        </mxCell>
        <mxCell id="Vx_kvmbCpHdBKnT_1PFn-53" style="edgeStyle=orthogonalEdgeStyle;rounded=0;orthogonalLoop=1;jettySize=auto;html=1;entryX=0.487;entryY=-0.043;entryDx=0;entryDy=0;entryPerimeter=0;" edge="1" parent="1" source="Vx_kvmbCpHdBKnT_1PFn-31" target="Vx_kvmbCpHdBKnT_1PFn-51">
          <mxGeometry relative="1" as="geometry" />
        </mxCell>
        <mxCell id="Vx_kvmbCpHdBKnT_1PFn-31" value="UART_RX" style="rounded=0;whiteSpace=wrap;html=1;" vertex="1" parent="1">
          <mxGeometry x="490" y="1000" width="120" height="60" as="geometry" />
        </mxCell>
        <mxCell id="Vx_kvmbCpHdBKnT_1PFn-32" style="edgeStyle=orthogonalEdgeStyle;rounded=0;orthogonalLoop=1;jettySize=auto;html=1;exitX=1;exitY=0.5;exitDx=0;exitDy=0;entryX=0;entryY=0.5;entryDx=0;entryDy=0;" edge="1" parent="1" source="Vx_kvmbCpHdBKnT_1PFn-33" target="Vx_kvmbCpHdBKnT_1PFn-29">
          <mxGeometry relative="1" as="geometry" />
        </mxCell>
        <mxCell id="Vx_kvmbCpHdBKnT_1PFn-33" value="FIFO_WR" style="whiteSpace=wrap;html=1;aspect=fixed;" vertex="1" parent="1">
          <mxGeometry x="120" y="990" width="80" height="80" as="geometry" />
        </mxCell>
        <mxCell id="Vx_kvmbCpHdBKnT_1PFn-34" style="edgeStyle=orthogonalEdgeStyle;rounded=0;orthogonalLoop=1;jettySize=auto;html=1;exitX=0.5;exitY=0;exitDx=0;exitDy=0;entryX=0.5;entryY=1;entryDx=0;entryDy=0;" edge="1" parent="1" source="Vx_kvmbCpHdBKnT_1PFn-35" target="Vx_kvmbCpHdBKnT_1PFn-40">
          <mxGeometry relative="1" as="geometry" />
        </mxCell>
        <mxCell id="Vx_kvmbCpHdBKnT_1PFn-35" value="FIFO_RD" style="whiteSpace=wrap;html=1;aspect=fixed;" vertex="1" parent="1">
          <mxGeometry x="690" y="990" width="80" height="80" as="geometry" />
        </mxCell>
        <mxCell id="Vx_kvmbCpHdBKnT_1PFn-36" style="edgeStyle=orthogonalEdgeStyle;rounded=0;orthogonalLoop=1;jettySize=auto;html=1;exitX=0.5;exitY=1;exitDx=0;exitDy=0;entryX=0.5;entryY=0;entryDx=0;entryDy=0;" edge="1" parent="1" source="Vx_kvmbCpHdBKnT_1PFn-37" target="Vx_kvmbCpHdBKnT_1PFn-33">
          <mxGeometry relative="1" as="geometry" />
        </mxCell>
        <mxCell id="Vx_kvmbCpHdBKnT_1PFn-37" value="i2s_Rx" style="whiteSpace=wrap;html=1;aspect=fixed;" vertex="1" parent="1">
          <mxGeometry x="120" y="860" width="80" height="80" as="geometry" />
        </mxCell>
        <mxCell id="Vx_kvmbCpHdBKnT_1PFn-38" value="24khz sample rate" style="shape=callout;whiteSpace=wrap;html=1;perimeter=calloutPerimeter;" vertex="1" parent="1">
          <mxGeometry x="110" y="800" width="120" height="60" as="geometry" />
        </mxCell>
        <mxCell id="Vx_kvmbCpHdBKnT_1PFn-39" style="edgeStyle=orthogonalEdgeStyle;rounded=0;orthogonalLoop=1;jettySize=auto;html=1;entryX=0;entryY=0.5;entryDx=0;entryDy=0;" edge="1" parent="1" source="Vx_kvmbCpHdBKnT_1PFn-40" target="Vx_kvmbCpHdBKnT_1PFn-42">
          <mxGeometry relative="1" as="geometry" />
        </mxCell>
        <mxCell id="Vx_kvmbCpHdBKnT_1PFn-40" value="i2s_TX" style="whiteSpace=wrap;html=1;aspect=fixed;" vertex="1" parent="1">
          <mxGeometry x="690" y="860" width="80" height="80" as="geometry" />
        </mxCell>
        <mxCell id="Vx_kvmbCpHdBKnT_1PFn-41" value="ADC" style="triangle;whiteSpace=wrap;html=1;" vertex="1" parent="1">
          <mxGeometry x="50" y="860" width="70" height="80" as="geometry" />
        </mxCell>
        <mxCell id="Vx_kvmbCpHdBKnT_1PFn-42" value="DAC" style="triangle;whiteSpace=wrap;html=1;" vertex="1" parent="1">
          <mxGeometry x="800" y="860" width="60" height="80" as="geometry" />
        </mxCell>
        <mxCell id="Vx_kvmbCpHdBKnT_1PFn-43" value="24khz sample rate" style="shape=callout;whiteSpace=wrap;html=1;perimeter=calloutPerimeter;" vertex="1" parent="1">
          <mxGeometry x="670" y="800" width="120" height="60" as="geometry" />
        </mxCell>
        <mxCell id="Vx_kvmbCpHdBKnT_1PFn-44" value="1843200" style="shape=callout;whiteSpace=wrap;html=1;perimeter=calloutPerimeter;" vertex="1" parent="1">
          <mxGeometry x="280" y="940" width="120" height="60" as="geometry" />
        </mxCell>
        <mxCell id="Vx_kvmbCpHdBKnT_1PFn-45" value="1843200" style="shape=callout;whiteSpace=wrap;html=1;perimeter=calloutPerimeter;" vertex="1" parent="1">
          <mxGeometry x="490" y="940" width="120" height="60" as="geometry" />
        </mxCell>
        <mxCell id="Vx_kvmbCpHdBKnT_1PFn-48" value="4G/5G" style="rounded=0;whiteSpace=wrap;html=1;" vertex="1" parent="1">
          <mxGeometry x="300" y="1140" width="50" height="90" as="geometry" />
        </mxCell>
        <mxCell id="Vx_kvmbCpHdBKnT_1PFn-50" value="" style="html=1;verticalLabelPosition=bottom;align=center;labelBackgroundColor=#ffffff;verticalAlign=top;strokeWidth=2;strokeColor=#0080F0;shadow=0;dashed=0;shape=mxgraph.ios7.icons.wifi;pointerEvents=1;rotation=-180;" vertex="1" parent="1">
          <mxGeometry x="310.15" y="1230" width="29.7" height="21" as="geometry" />
        </mxCell>
        <mxCell id="Vx_kvmbCpHdBKnT_1PFn-51" value="4G/5G" style="rounded=0;whiteSpace=wrap;html=1;" vertex="1" parent="1">
          <mxGeometry x="525" y="1140" width="50" height="90" as="geometry" />
        </mxCell>
        <mxCell id="Vx_kvmbCpHdBKnT_1PFn-52" value="" style="html=1;verticalLabelPosition=bottom;align=center;labelBackgroundColor=#ffffff;verticalAlign=top;strokeWidth=2;strokeColor=#0080F0;shadow=0;dashed=0;shape=mxgraph.ios7.icons.wifi;pointerEvents=1;rotation=-180;" vertex="1" parent="1">
          <mxGeometry x="535.15" y="1230" width="29.7" height="21" as="geometry" />
        </mxCell>
      </root>
    </mxGraphModel>
  </diagram>
</mxfile>
